<svg width="12" height="12" viewBox="0 0 12 12" fill="none" xmlns="http://www.w3.org/2000/svg">
<path d="M6.92308 0.923077C6.92308 0.4125 6.51058 0 6 0C5.48942 0 5.07692 0.4125 5.07692 0.923077V5.07692H0.923077C0.4125 5.07692 0 5.48942 0 6C0 6.51058 0.4125 6.92308 0.923077 6.92308H5.07692V11.0769C5.07692 11.5875 5.48942 12 6 12C6.51058 12 6.92308 11.5875 6.92308 11.0769V6.92308H11.0769C11.5875 6.92308 12 6.51058 12 6C12 5.48942 11.5875 5.07692 11.0769 5.07692H6.92308V0.923077Z" fill="#4CA6BF"/>
</svg>
